{"title":"The Prince 2014 HDRip XviD AQOS","uid":10837239,"size":734022296,"categoryP":"video","categoryS":"movies","magnet":"?xt=urn:btih:cd9a08d39ad487420255d968e8a8ce3db1296aba&amp;dn=The+Prince+2014+HDRip+XviD+AQOS&amp;tr=udp%3A%2F%2Ftracker.openbittorrent.com%3A80&amp;tr=udp%3A%2F%2Fopen.demonii.com%3A1337&amp;tr=udp%3A%2F%2Ftracker.coppersurfer.tk%3A6969&amp;tr=udp%3A%2F%2Fexodus.desync.com%3A6969","seeders":1,"leechers":0,"uploader":"charlesfire22","files":1,"time":1408706039,"description":"The Prince 2014 HDRip XviD AQOS\n\n &lt;a href=&quot;\nhttp://www.imdb.com/title/tt1085492/&quot; rel=&quot;nofollow&quot; target=&quot;_NEW&quot;&gt;\nhttp://www.imdb.com/title/tt1085492/&lt;/a&gt;\n\nScreen\n &lt;a href=&quot;\nhttp://bayimg.com/hAPfaAaFp&quot; rel=&quot;nofollow&quot; target=&quot;_NEW&quot;&gt;\nhttp://bayimg.com/hAPfaAaFp&lt;/a&gt;\n\nFormat                         : AVI\nFormat/Info                    : Audio Video Interleave\nFile size                      : 700 MiB\nDuration                       : 1h 30mn\nOverall bit rate mode          : Variable\nOverall bit rate               : 1 080 Kbps\n\nVideo\nID                             : 0\nFormat                         : MPEG-4 Visual\nFormat profile                 : Advanced Simple@L5\nFormat settings, BVOP          : Yes\nFormat settings, QPel          : No\nFormat settings, GMC           : No warppoints\nFormat settings, Matrix        : Default (H.263)\nCodec ID                       : XVID\nCodec ID/Hint                  : XviD\nDuration                       : 1h 30mn\nBit rate                       : 949 Kbps\nWidth                          : 640 pixels\nHeight                         : 272 pixels\nDisplay aspect ratio           : 2.35:1\nFrame rate                     : 23.976 fps\nColor space                    : YUV\nChroma subsampling             : 4:2:0\nBit depth                      : 8 bits\nScan type                      : Progressive\nCompression mode               : Lossy\nBits/(Pixel*Frame)             : 0.227\nStream size                    : 615 MiB (88%)\nWriting library                : XviD 1.2.1 (UTC 2008-12-04)\n\nAudio\nID                             : 1\nFormat                         : MPEG Audio\nFormat version                 : Version 1\nFormat profile                 : Layer 3\nMode                           : Joint stereo\nMode extension                 : MS Stereo\nCodec ID                       : 55\nCodec ID/Hint                  : MP3\nDuration                       : 1h 30mn\nBit rate mode                  : Variable\nBit rate                       : 118 Kbps\nNominal bit rate               : 128 Kbps\nChannel(s)                     : 2 channels\nSampling rate                  : 44.1 KHz\nCompression mode               : Lossy\nStream size                    : 76.8 MiB (11%)\nAlignment                      : Aligned on interleaves\nInterleave, duration           : 26 ms (0.63 video frame)\nInterleave, preload duration   : 70 ms\nTitle                          : The Prince - [0] English\nWriting library                : LAME3.99r\nEncoding settings              : -m j -V 4 -q 2 -lowpass 17 --abr 128\n\n","torrent":{"xt":"urn:btih:cd9a08d39ad487420255d968e8a8ce3db1296aba","amp;dn":"The+Prince+2014+HDRip+XviD+AQOS","amp;tr":["udp%3A%2F%2Ftracker.openbittorrent.com%3A80","udp%3A%2F%2Fopen.demonii.com%3A1337","udp%3A%2F%2Ftracker.coppersurfer.tk%3A6969","udp%3A%2F%2Fexodus.desync.com%3A6969"],"infoHash":"cd9a08d39ad487420255d968e8a8ce3db1296aba","infoHashBuffer":{"type":"Buffer","data":[205,154,8,211,154,212,135,66,2,85,217,104,232,168,206,61,177,41,106,186]},"announce":[],"urlList":[]}}